<?xml version="1.0" encoding="UTF-8" standalone="no"?>
<!-- Copyright 2017 mathsisfun.com -->
<svg xmlns="http://www.w3.org/2000/svg" width="364.1" height="312.1" version="1.1" style="font-size:13.3px; fill:black;">
<defs>
	<marker id="aa3" style="overflow:visible;" orient="auto">
		<path transform="scale(0.8) rotate(180) translate(12.5,0)" style="stroke:black; stroke-width:1pt;" d="M 0,0 L 5,-5 L -12.5,0 L 5,5 L 0,0 z "/>
	</marker>
	<marker id="aa1" style="overflow:visible;" orient="auto">
		<path transform="scale(0.8) rotate(180) translate(12.5,0)" style="stroke:black; stroke-width:1pt;" d="M 0,0 L 5,-5 L -12.5,0 L 5,5 L 0,0 z "/>
	</marker>
	<marker id="aa2" style="overflow:visible;" orient="auto">
		<path transform="scale(0.8) rotate(180) translate(12.5,0)" style="stroke:black; stroke-width:1pt;" d="M 0,0 L 5,-5 L -12.5,0 L 5,5 L 0,0 z "/>
	</marker>
</defs>
<rect x="33.2" y="213.1" width="32.9" height="32.9" style="fill:#bfe9ff; stroke:#00009e; stroke-width:0.59;"/>
<rect x="66.1" y="213.1" width="32.9" height="32.9" style="fill:#f5ffbf; stroke:#00009e; stroke-width:0.59;"/>
<rect x="99.1" y="213.1" width="32.9" height="32.9" style="fill:#19aeff; stroke:#00009e; stroke-width:0.59;"/>
<rect x="132" y="213.1" width="32.9" height="32.9" style="fill:white; stroke:#00009e; stroke-width:0.59;"/>
<rect x="164.9" y="213.1" width="32.9" height="32.9" style="fill:white; stroke:#00009e; stroke-width:0.59;"/>
<rect x="197.8" y="213.1" width="32.9" height="32.9" style="fill:white; stroke:#00009e; stroke-width:0.59;"/>
<rect x="49.7" y="180.1" width="32.9" height="32.9" style="fill:#bfe9ff; stroke:#00009e; stroke-width:0.59;"/>
<rect x="82.6" y="180.1" width="32.9" height="32.9" style="fill:#f5ffbf; stroke:#00009e; stroke-width:0.59;"/>
<rect x="115.5" y="180.1" width="32.9" height="32.9" style="fill:#19aeff; stroke:#00009e; stroke-width:0.59;"/>
<rect x="148.4" y="180.1" width="32.9" height="32.9" style="fill:white; stroke:#00009e; stroke-width:0.59;"/>
<rect x="181.4" y="180.1" width="32.9" height="32.9" style="fill:white; stroke:#00009e; stroke-width:0.59;"/>
<rect x="66.1" y="147.2" width="32.9" height="32.9" style="fill:#bfe9ff; stroke:#00009e; stroke-width:0.59;"/>
<rect x="99.1" y="147.2" width="32.9" height="32.9" style="fill:#f5ffbf; stroke:#00009e; stroke-width:0.59;"/>
<rect x="132" y="147.2" width="32.9" height="32.9" style="fill:#19aeff; stroke:#00009e; stroke-width:0.59;"/>
<rect x="164.9" y="147.2" width="32.9" height="32.9" style="fill:white; stroke:#00009e; stroke-width:0.59;"/>
<rect x="82.6" y="114.3" width="32.9" height="32.9" style="fill:#bfe9ff; stroke:#00009e; stroke-width:0.59;"/>
<rect x="115.5" y="114.3" width="32.9" height="32.9" style="fill:#f5ffbf; stroke:#00009e; stroke-width:0.59;"/>
<rect x="148.4" y="114.3" width="32.9" height="32.9" style="fill:#19aeff; stroke:#00009e; stroke-width:0.59;"/>
<rect x="99.1" y="81.4" width="32.9" height="32.9" style="fill:#bfe9ff; stroke:#00009e; stroke-width:0.59;"/>
<rect x="132" y="81.4" width="32.9" height="32.9" style="fill:#f5ffbf; stroke:#00009e; stroke-width:0.59;"/>
<rect x="115.5" y="48.5" width="32.9" height="32.9" style="fill:#bfe9ff; stroke:#00009e; stroke-width:0.59;"/>
<rect x="16.8" y="246" width="32.9" height="32.9" style="fill:#bfe9ff; stroke:#00009e; stroke-width:0.59;"/>
<rect x="49.7" y="246" width="32.9" height="32.9" style="fill:#f5ffbf; stroke:#00009e; stroke-width:0.59;"/>
<rect x="82.6" y="246" width="32.9" height="32.9" style="fill:#19aeff; stroke:#00009e; stroke-width:0.59;"/>
<rect x="115.5" y="246" width="32.9" height="32.9" style="fill:white; stroke:#00009e; stroke-width:0.59;"/>
<rect x="148.4" y="246" width="32.9" height="32.9" style="fill:white; stroke:#00009e; stroke-width:0.59;"/>
<rect x="181.4" y="246" width="32.9" height="32.9" style="fill:white; stroke:#00009e; stroke-width:0.59;"/>
<rect x="214.3" y="246" width="32.9" height="32.9" style="fill:white; stroke:#00009e; stroke-width:0.59;"/>
<rect x="0.3" y="278.9" width="32.9" height="32.9" style="fill:#bfe9ff; stroke:#00009e; stroke-width:0.59;"/>
<rect x="33.2" y="278.9" width="32.9" height="32.9" style="fill:#f5ffbf; stroke:#00009e; stroke-width:0.59;"/>
<rect x="66.1" y="278.9" width="32.9" height="32.9" style="fill:#19aeff; stroke:#00009e; stroke-width:0.59;"/>
<rect x="99.1" y="278.9" width="32.9" height="32.9" style="fill:white; stroke:#00009e; stroke-width:0.59;"/>
<rect x="132" y="278.9" width="32.9" height="32.9" style="fill:white; stroke:#00009e; stroke-width:0.59;"/>
<rect x="164.9" y="278.9" width="32.9" height="32.9" style="fill:white; stroke:#00009e; stroke-width:0.59;"/>
<rect x="197.8" y="278.9" width="32.9" height="32.9" style="fill:white; stroke:#00009e; stroke-width:0.59;"/>
<rect x="230.7" y="278.9" width="32.9" height="32.9" style="fill:white; stroke:#00009e; stroke-width:0.59;"/>
<text x="126.6" y="71.4" style="font-family:Arial;">1</text>
<text x="109.9" y="104.3" style="font-family:Arial;">1</text>
<text x="94.9" y="136.6" style="font-family:Arial;">1</text>
<text x="77.4" y="170.2" style="font-family:Arial;">1</text>
<text x="45.1" y="235.6" style="font-family:Arial;">1</text>
<text x="61.9" y="202.6" style="font-family:Arial;">1</text>
<text x="145.1" y="104.3" style="font-family:Arial;">1</text>
<text x="161.2" y="136.6" style="font-family:Arial;">1</text>
<text x="177.2" y="170.2" style="font-family:Arial;">1</text>
<text x="193.1" y="202.6" style="font-family:Arial;">1</text>
<text x="209.5" y="235.6" style="font-family:Arial;">1</text>
<text x="127.2" y="136.6" style="font-family:Arial;">2</text>
<text x="110.2" y="170.1" style="font-family:Arial;">3</text>
<text x="94.4" y="202.5" style="font-family:Arial;">4</text>
<text x="77.5" y="235.3" style="font-family:Arial;">5</text>
<text x="106.2" y="235.4" style="font-family:Arial;">10</text>
<text x="139.1" y="235.4" style="font-family:Arial;">10</text>
<text x="176.1" y="235.3" style="font-family:Arial;">5</text>
<text x="160" y="202.5" style="font-family:Arial;">4</text>
<text x="127" y="202.4" style="font-family:Arial;">6</text>
<text x="143.4" y="170.1" style="font-family:Arial;">3</text>
<text x="226.2" y="269.1" style="font-family:Arial;">1</text>
<text x="29" y="269.1" style="font-family:Arial;">1</text>
<text x="192.9" y="268.9" style="font-family:Arial;">6</text>
<text x="61.4" y="268.9" style="font-family:Arial;">6</text>
<text x="90.1" y="268.9" style="font-family:Arial;">15</text>
<text x="123.5" y="268.9" style="font-family:Arial;">20</text>
<text x="155.8" y="268.9" style="font-family:Arial;">15</text>
<text x="12.5" y="301.7" style="font-family:Arial;">1</text>
<text x="173.3" y="301.7" style="font-family:Arial;">21</text>
<text x="44.8" y="301.7" style="font-family:Arial;">7</text>
<text x="74.9" y="301.7" style="font-family:Arial;">21</text>
<text x="106.7" y="301.7" style="font-family:Arial;">35</text>
<text x="139.5" y="301.7" style="font-family:Arial;">35</text>
<text x="242.1" y="301.7" style="font-family:Arial;">1</text>
<text x="208.8" y="301.7" style="font-family:Arial;">7</text>
<text x="158.7" y="13.2" style="font-family:'Comic Sans MS'; font-size:17.3px; fill:#0aabff;">Ones</text>
<text x="182.6" y="44.6" style="font-family:'Comic Sans MS'; font-size:17.3px; fill:#a9c800;">Counting Numbers</text>
<text x="198.5" y="76.5" style="font-family:'Comic Sans MS'; font-size:17.3px; fill:#007cbf;">Triangular Numbers</text>
<path style="marker-end:url(#aa1); fill:none; stroke:black; stroke-width:0.89;" d="m 175.5,17.7 h -20.8 l -11.1,25.2"/>
<path style="marker-end:url(#aa2); fill:none; stroke:black; stroke-width:0.89;" d="m 201.2,49 h -20.8 l -11.1,25.2"/>
<path style="marker-end:url(#aa3); fill:none; stroke:black; stroke-width:0.89;" d="m 217.5,80 h -20.8 l -11.1,25.2"/>
</svg>